<svg width="24" height="24" viewBox="0 0 24 24" fill="none" xmlns="http://www.w3.org/2000/svg">
<path d="M3 10V13C3 16.7712 3 18.6569 4.17157 19.8284C5.34315 21 7.22876 21 11 21H13C16.7712 21 18.6569 21 19.8284 19.8284C21 18.6569 21 16.7712 21 13V10M3 10V9.5C3 9.03566 3 8.80349 3.01926 8.60793C3.20631 6.70882 4.70882 5.20631 6.60793 5.01926C6.80349 5 7.03566 5 7.5 5V5M3 10H21M21 10V9.5C21 9.03566 21 8.80349 20.9807 8.60793C20.7937 6.70882 19.2912 5.20631 17.3921 5.01926C17.1965 5 16.9643 5 16.5 5V5M12 5V3M12 5V7M12 5H7.5M12 5H16.5M7.5 5V3M7.5 5V7M16.5 5V3M16.5 5V7" stroke="#1F2023" stroke-width="1.5" stroke-miterlimit="10" stroke-linecap="round"/>
</svg>
