<svg width="43" height="50" viewBox="0 0 43 50" fill="none" xmlns="http://www.w3.org/2000/svg">
<path d="M1.58497 23.7326C1.18201 23.3293 0.955627 22.7824 0.955627 22.2122C0.955627 21.642 1.18201 21.0951 1.58497 20.6918L16.7763 5.50105C18.1655 4.07526 19.8239 2.93967 21.6551 2.16014C23.4864 1.38061 25.4541 0.972665 27.4441 0.959962C29.4341 0.947259 31.4069 1.33005 33.2479 2.08614C35.089 2.84222 36.7616 3.95655 38.1689 5.36449C39.5763 6.77243 40.6902 8.44595 41.4461 10.288C42.202 12.13 42.5849 14.1039 42.5725 16.0951C42.5601 18.0864 42.1527 20.0553 41.3739 21.8878C40.5951 23.7203 39.4604 25.3798 38.0357 26.7701L18.2941 46.5236C16.2716 48.4969 13.5534 49.5933 10.7286 49.5752C7.9038 49.5571 5.1999 48.4259 3.20284 46.4268C1.20577 44.4277 0.0764247 41.7216 0.0595187 38.8951C0.0426128 36.0686 1.13951 33.3492 3.11252 31.3263L19.8152 14.6136C21.0286 13.4284 22.66 12.7696 24.3556 12.78C26.0512 12.7904 27.6744 13.4691 28.8732 14.6691C30.072 15.869 30.7498 17.4934 30.7596 19.1901C30.7693 20.8867 30.1103 22.5189 28.9255 23.7326L16.7763 35.8858C16.3737 36.2886 15.8278 36.5149 15.2585 36.5149C14.6892 36.5149 14.1432 36.2886 13.7406 35.8858C13.3381 35.483 13.1119 34.9367 13.1119 34.3671C13.1119 33.7974 13.3381 33.2511 13.7406 32.8483L25.8866 20.6918C26.0859 20.4924 26.244 20.2556 26.3519 19.995C26.4597 19.7344 26.5153 19.4551 26.5153 19.1731C26.5153 18.891 26.4597 18.6117 26.3519 18.3511C26.244 18.0905 26.0859 17.8538 25.8866 17.6543C25.6872 17.4549 25.4506 17.2967 25.1902 17.1887C24.9297 17.0808 24.6506 17.0252 24.3687 17.0252C24.0868 17.0252 23.8077 17.0808 23.5473 17.1887C23.2868 17.2967 23.0502 17.4549 22.8509 17.6543L6.14819 34.3671C4.9401 35.5759 4.2614 37.2154 4.2614 38.925C4.2614 39.7714 4.42802 40.6096 4.75176 41.3917C5.0755 42.1737 5.55 42.8843 6.14819 43.4828C6.74638 44.0814 7.45653 44.5562 8.23811 44.8801C9.01968 45.2041 9.85736 45.3708 10.7033 45.3708C12.4118 45.3708 14.0504 44.6917 15.2585 43.4828L35.0001 23.7293C36.0364 22.7407 36.8648 21.5546 37.4362 20.2409C38.0077 18.9272 38.3109 17.5123 38.3278 16.0797C38.3447 14.647 38.0751 13.2254 37.5349 11.8985C36.9946 10.5716 36.1945 9.36628 35.1818 8.35337C34.1691 7.34046 32.9641 6.54045 31.6378 6.00041C30.3115 5.46038 28.8906 5.19122 27.4588 5.20877C26.027 5.22633 24.6132 5.53025 23.3005 6.10264C21.9878 6.67504 20.8028 7.50435 19.8152 8.54179L4.63035 23.7326C4.22749 24.1348 3.68162 24.3607 3.11252 24.3607C2.54341 24.3607 1.99754 24.1348 1.59468 23.7326" fill="black"/>
</svg>
