<svg width="24" height="24" viewBox="0 0 24 24" fill="none" xmlns="http://www.w3.org/2000/svg">
<path d="M3 11.9127C3 9.99127 3 9.03056 3.40674 8.19893C3.81348 7.36729 4.57181 6.77748 6.08847 5.59785L7.08848 4.82007C9.44787 2.98499 10.6276 2.06745 12 2.06745C13.3724 2.06745 14.5521 2.98499 16.9115 4.82008L17.9115 5.59785C19.4282 6.77748 20.1865 7.36729 20.5933 8.19893C21 9.03056 21 9.99127 21 11.9127V14C21 17.7712 21 19.6569 19.8284 20.8284C18.6569 22 16.7712 22 13 22H11C7.22876 22 5.34315 22 4.17157 20.8284C3 19.6569 3 17.7712 3 14V11.9127Z" stroke="#1F2023" stroke-width="1.5" stroke-miterlimit="10"/>
<path d="M9 17C9 16.0681 9 15.6022 9.15224 15.2346C9.35523 14.7446 9.74458 14.3552 10.2346 14.1522C10.6022 14 11.0681 14 12 14V14C12.9319 14 13.3978 14 13.7654 14.1522C14.2554 14.3552 14.6448 14.7446 14.8478 15.2346C15 15.6022 15 16.0681 15 17V22H9V17Z" stroke="#1F2023" stroke-width="1.5" stroke-miterlimit="10"/>
</svg>
